<svg xmlns="http://www.w3.org/2000/svg" viewBox="0 0 50 32" width="28" height="18">
  <rect width="50" height="32" rx="8" fill="#fff"/>
  <path d="M8 4h15a11 11 0 1 1 0 24H8z" fill="#c06"/>
  <path d="M13.2 8.8v14.4h2.9c2.5 0 4.1-1.5 4.1-3.7 0-1.5-0.8-2.6-2.2-3.1 1.1-0.4 1.8-1.3 1.8-2.6 0-2-1.4-3-3.8-3h-2.8zm2.1 2h0.7c1.1 0 1.7 0.5 1.7 1.5 0 1-0.6 1.5-1.7 1.5h-0.7zm0 5.1h0.9c1.2 0 1.9 0.6 1.9 1.6 0 1-0.7 1.6-1.9 1.6h-0.9z" fill="#fff"/>
  <text x="32" y="22" font-family="Arial, Helvetica, sans-serif" font-size="10" fill="#000">iDEAL</text>
</svg>
